Coordinates
version=1
nRows=15
nColumns=46
inDegrees=yes

Units are S.I. units (second, meters, Newtons, ...)
Angles are in degrees.

endheader
time	pelvis_tilt	pelvis_list	pelvis_rotation	pelvis_tx	pelvis_ty	pelvis_tz	bb_angle	bb_tx	bb_ty	bb_tz	hip_flexion_r	hip_adduction_r	hip_rotation_r	knee_angle_r	knee_angle_r_beta	ankle_angle_r	subtalar_angle_r	mtp_angle_r	crank_angle_r	hip_flexion_l	hip_adduction_l	hip_rotation_l	knee_angle_l	knee_angle_l_beta	ankle_angle_l	subtalar_angle_l	mtp_angle_l	crank_angle_l	lumbar_extension	lumbar_bending	lumbar_rotation	arm_flex_r	arm_add_r	arm_rot_r	elbow_flex_r	pro_sup_r	wrist_flex_r	wrist_dev_r	arm_flex_l	arm_add_l	arm_rot_l	elbow_flex_l	pro_sup_l	wrist_flex_l	wrist_dev_l
      0.00000000	    -19.26159148	     -7.08427183	     -1.35020920	      0.12602225	      1.13115881	     -0.24205270	      0.00000000	      0.50000000	      0.00000000	      0.25000000	     93.77910484	     -6.74921509	     -5.00206216	    105.47848211	      1.84094680	     26.22773991	      1.88881662	      0.00000000	      0.00000000	     47.16550362	    -14.74772717	     -5.45946332	     48.89128521	      0.85331390	     16.63419925	      7.70757659	      0.00000000	      0.00000000	    -49.98825518	      4.59687120	      7.25376130	     89.48642406	     -7.22620504	     32.07894427	     33.13330726	     21.73246424	      0.00000000	      0.00000000	     89.54700005	     -1.78530744	     31.67262136	     28.93886692	     20.84755038	      0.00000000	      0.00000000
      0.00500000	    -19.29449767	     -7.03855058	     -1.35655757	      0.12605461	      1.13113960	     -0.24207936	      0.00000000	      0.50000000	      0.00000000	      0.25000000	     93.82847091	     -6.75660518	     -4.95035323	    105.48864144	      1.84112412	     26.20635271	      1.86020111	      0.00000000	      0.00000000	     47.16752741	    -14.68234085	     -5.46277695	     48.84313896	      0.85247359	     16.53166734	      7.47131963	      0.00000000	      0.00000000	    -49.92270614	      4.56928913	      7.18722309	     89.48611050	     -6.86707692	     30.95477737	     32.13414849	     25.64853296	      0.00000000	      0.00000000	     89.56685756	     -1.17676119	     29.98859390	     27.63403436	     24.72428065	      0.00000000	      0.00000000
      0.01000000	    -19.31972200	     -7.04343965	     -1.37531936	      0.12604414	      1.13107090	     -0.24196879	      0.00000000	      0.50000000	      0.00000000	      0.25000000	     93.86187093	     -6.72903795	     -4.95339546	    105.50016548	      1.84132525	     26.20233361	      1.87886634	      0.00000000	      0.00000000	     47.19853846	    -14.71342903	     -5.47186334	     48.85577314	      0.85269410	     16.57181501	      7.60271093	      0.00000000	      0.00000000	    -49.88689819	      4.54669103	      7.15317327	     89.48621769	     -6.81649900	     30.95000878	     31.85251538	     26.74406249	      0.00000000	      0.00000000	     89.56148808	     -1.13878582	     29.64681177	     27.45978345	     25.75736487	      0.00000000	      0.00000000
      0.01500000	    -19.50101073	     -7.28909206	     -1.49319663	      0.12553518	      1.13034438	     -0.24134131	      0.00000000	      0.50000000	      0.00000000	      0.25000000	     94.07177909	     -6.49548128	     -5.17892210	    105.45466399	      1.84053110	     26.10866462	      1.77997166	      0.00000000	      0.00000000	     47.58243770	    -14.95130152	     -5.15068227	     49.05532285	      0.85617690	     16.61642146	      7.97020972	      0.00000000	      0.00000000	    -49.75689534	      4.61429090	      7.46113655	     89.48467577	     -6.91584202	     30.80002940	     31.94581113	     27.75922010	      0.00000000	      0.00000000	     89.55157566	     -1.08603493	     29.28084223	     27.61039049	     26.69926632	      0.00000000	      0.00000000
      0.02000000	    -19.27431563	     -7.27783999	     -1.49202817	      0.12570470	      1.13099472	     -0.24147660	      0.00000000	      0.50000000	      0.00000000	      0.25000000	     93.79518120	     -6.46424381	     -5.16020093	    105.47395508	      1.84086779	     26.22981690	      1.90437162	      0.00000000	      0.00000000	     47.29651487	    -15.14936714	     -5.46063030	     49.06007100	      0.85625977	     16.79302081	      8.18605678	      0.00000000	      0.00000000	    -50.06048075	      4.52181779	      7.56595843	     89.46646953	     -7.10136666	     30.10318511	     32.36483654	     28.84478605	      0.00000000	      0.00000000	     89.53984173	     -1.07543170	     28.63603565	     28.05441106	     27.78054624	      0.00000000	      0.00000000
      0.02500000	    -19.27934031	     -7.29526695	     -1.44717974	      0.12562897	      1.13105864	     -0.24162794	      0.00000000	      0.50000000	      0.00000000	      0.25000000	     93.78869040	     -6.52785128	     -5.17422610	    105.46779289	      1.84076024	     26.21108861	      1.92715682	      0.00000000	      0.00000000	     47.30447335	    -15.09831621	     -5.40389645	     49.02095962	      0.85557715	     16.83413696	      8.17415696	      0.00000000	      0.00000000	    -50.08127839	      4.54188177	      7.56685479	     89.45562056	     -7.11492284	     29.81402551	     32.24779806	     29.66026465	      0.00000000	      0.00000000	     89.54190709	     -1.01248123	     28.35154037	     27.95519215	     28.57852359	      0.00000000	      0.00000000
      0.03000000	    -19.49929546	     -7.19460954	     -1.45637420	      0.12555167	      1.13064191	     -0.24165807	      0.00000000	      0.50000000	      0.00000000	      0.25000000	     94.07686347	     -6.53235446	     -5.06359957	    105.48149048	      1.84099931	     26.09626663	      1.63587316	      0.00000000	      0.00000000	     47.53640525	    -14.94302771	     -5.36102364	     49.01860963	      0.85553613	     16.65454242	      7.71974939	      0.00000000	      0.00000000	    -49.68782045	      4.52590305	      7.43617009	     89.49874798	     -7.58497389	     32.77443504	     31.74894064	     28.67811999	      0.00000000	      0.00000000	     89.56335830	     -1.63740612	     32.10509408	     27.47631016	     27.12163875	      0.00000000	      0.00000000
      0.03500000	    -19.50366528	     -7.19258947	     -1.46758345	      0.12554386	      1.13062525	     -0.24166426	      0.00000000	      0.50000000	      0.00000000	      0.25000000	     94.08160195	     -6.53488212	     -5.07050635	    105.49030780	      1.84115320	     26.11691252	      1.62677276	      0.00000000	      0.00000000	     47.54542669	    -14.94976040	     -5.38237132	     49.01825602	      0.85552996	     16.60176792	      7.69185051	      0.00000000	      0.00000000	    -49.67990453	      4.51043683	      7.43781413	     89.49602997	     -7.44609790	     32.02944747	     31.58372439	     29.01020308	      0.00000000	      0.00000000	     89.56292742	     -1.45615953	     31.41469426	     27.31266346	     27.39618301	      0.00000000	      0.00000000
      0.04000000	    -19.50421420	     -7.19345788	     -1.46756316	      0.12555689	      1.13062696	     -0.24166676	      0.00000000	      0.50000000	      0.00000000	      0.25000000	     94.07842318	     -6.54241367	     -5.07881299	    105.49305627	      1.84120117	     26.12685867	      1.65777556	      0.00000000	      0.00000000	     47.54231001	    -14.94592440	     -5.37458279	     49.01942876	      0.85555043	     16.66792637	      7.69839687	      0.00000000	      0.00000000	    -49.68276057	      4.51613092	      7.44129592	     89.49620513	     -7.37118768	     31.81202402	     31.53591693	     29.19442592	      0.00000000	      0.00000000	     89.56299029	     -1.41252167	     31.17166263	     27.31628260	     27.49409103	      0.00000000	      0.00000000
      0.04500000	    -19.43533062	     -7.32917088	     -1.60511613	      0.12549654	      1.13065351	     -0.24100845	      0.00000000	      0.50000000	      0.00000000	      0.25000000	     93.97799409	     -6.30156705	     -5.21616123	    105.47836333	      1.84094473	     26.27499577	      1.86838024	      0.00000000	      0.00000000	     47.50697570	    -15.27995596	     -5.46781984	     49.10210351	      0.85699338	     16.82800010	      8.25637505	      0.00000000	      0.00000000	    -49.88265812	      4.46044661	      7.70786024	     89.46687039	     -7.41101005	     30.82141478	     32.06771644	     30.03769389	      0.00000000	      0.00000000	     89.54390429	     -1.35139918	     30.14075653	     27.85718245	     28.37347543	      0.00000000	      0.00000000
      0.05000000	    -19.57146572	     -7.26634637	     -1.60738746	      0.12543824	      1.13045747	     -0.24107938	      0.00000000	      0.50000000	      0.00000000	      0.25000000	     94.14775724	     -6.33066678	     -5.17048380	    105.46367382	      1.84068835	     26.07187383	      1.54961855	      0.00000000	      0.00000000	     47.63833847	    -15.16460340	     -5.44196825	     49.06491315	      0.85634428	     16.67773240	      7.82334623	      0.00000000	      0.00000000	    -49.63494203	      4.42359187	      7.65063611	     89.47869312	     -7.26246219	     30.78188969	     31.44439301	     30.16680383	      0.00000000	      0.00000000	     89.56371580	     -1.03065300	     30.02042812	     27.03886653	     28.50135733	      0.00000000	      0.00000000
      0.05500000	    -19.61075956	     -7.29323999	     -1.59953545	      0.12540620	      1.13036085	     -0.24109153	      0.00000000	      0.50000000	      0.00000000	      0.25000000	     94.18000754	     -6.34831938	     -5.20714110	    105.45739120	      1.84057870	     26.08109478	      1.54183061	      0.00000000	      0.00000000	     47.71338124	    -15.17492362	     -5.38741466	     49.10752230	      0.85708795	     16.68444085	      7.81614972	      0.00000000	      0.00000000	    -49.58110004	      4.47792932	      7.60627781	     89.49329741	     -7.24514551	     31.32733131	     31.25904497	     30.25071656	      0.00000000	      0.00000000	     89.55938976	     -1.26605784	     30.49194624	     27.12521724	     28.51324618	      0.00000000	      0.00000000
      0.06000000	    -19.60584338	     -7.24241422	     -1.62973322	      0.12545082	      1.13035257	     -0.24105551	      0.00000000	      0.50000000	      0.00000000	      0.25000000	     94.19347531	     -6.33337960	     -5.15028265	    105.47569631	      1.84089818	     26.09361290	      1.59148872	      0.00000000	      0.00000000	     47.68355715	    -15.16459435	     -5.46303426	     49.10962788	      0.85712470	     16.73302749	      7.84065609	      0.00000000	      0.00000000	    -49.58672728	      4.41557731	      7.60943339	     89.49719671	     -7.68283340	     32.66116376	     31.70655633	     28.89554904	      0.00000000	      0.00000000	     89.56185632	     -1.68828080	     32.21902217	     27.53926687	     26.84744004	      0.00000000	      0.00000000
      0.06500000	    -19.58540292	     -7.29367148	     -1.61765003	      0.12539747	      1.13040487	     -0.24108184	      0.00000000	      0.50000000	      0.00000000	      0.25000000	     94.14718779	     -6.34397282	     -5.21122748	    105.45369572	      1.84051420	     26.10412521	      1.59603547	      0.00000000	      0.00000000	     47.69341093	    -15.19816983	     -5.41177599	     49.12951322	      0.85747177	     16.67848592	      7.84824420	      0.00000000	      0.00000000	    -49.61627370	      4.44848006	      7.65149573	     89.48190428	     -7.43980815	     31.74409377	     31.57000867	     29.33293705	      0.00000000	      0.00000000	     89.56403306	     -1.42394361	     31.37466823	     27.39033241	     27.33039318	      0.00000000	      0.00000000
      0.07000000	    -19.47676732	     -7.34180062	     -1.66389470	      0.12547487	      1.13062809	     -0.24097785	      0.00000000	      0.50000000	      0.00000000	      0.25000000	     93.99378507	     -6.28434897	     -5.25195084	    105.43696715	      1.84022223	     26.26487136	      1.91312577	      0.00000000	      0.00000000	     47.56812330	    -15.33906934	     -5.50076004	     49.15163571	      0.85785788	     16.83165185	      8.31649797	      0.00000000	      0.00000000	    -49.82877105	      4.43553528	      7.77027396	     89.46853067	     -7.41538366	     30.76638706	     31.97181147	     30.03696287	      0.00000000	      0.00000000	     89.54137066	     -1.37667888	     30.35558749	     27.87865934	     28.11903063	      0.00000000	      0.00000000
